sfk_cyclingleg_states
version=1
nRows=13
nColumns=53
inDegrees=yes

# SIMM Motion File Header:
name sfk_cyclingleg_states
datacolumns 53
datarows 13
otherdata 1
range 0.55045619 0.55641615
endheader
time	/jointset/bb/crank_angle/value	/jointset/bb/crank_angle/speed	/jointset/spindle/pedal_angle_r/value	/jointset/spindle/pedal_angle_r/speed	/jointset/ground_pelvis/pelvis_tilt/value	/jointset/ground_pelvis/pelvis_tilt/speed	/jointset/ground_pelvis/pelvis_list/value	/jointset/ground_pelvis/pelvis_list/speed	/jointset/ground_pelvis/pelvis_rotation/value	/jointset/ground_pelvis/pelvis_rotation/speed	/jointset/ground_pelvis/pelvis_tx/value	/jointset/ground_pelvis/pelvis_tx/speed	/jointset/ground_pelvis/pelvis_ty/value	/jointset/ground_pelvis/pelvis_ty/speed	/jointset/ground_pelvis/pelvis_tz/value	/jointset/ground_pelvis/pelvis_tz/speed	/jointset/hip_r/hip_angle_r/value	/jointset/hip_r/hip_angle_r/speed	/jointset/hip_r/hip_adduction_r/value	/jointset/hip_r/hip_adduction_r/speed	/jointset/hip_r/hip_rotation_r/value	/jointset/hip_r/hip_rotation_r/speed	/jointset/knee_r/knee_angle_r/value	/jointset/knee_r/knee_angle_r/speed	/jointset/knee_r/tib_tx_r/value	/jointset/knee_r/tib_tx_r/speed	/jointset/knee_r/tib_ty_r/value	/jointset/knee_r/tib_ty_r/speed	/jointset/tib_pat_r/pat_angle_r/value	/jointset/tib_pat_r/pat_angle_r/speed	/jointset/tib_pat_r/pat_tx_r/value	/jointset/tib_pat_r/pat_tx_r/speed	/jointset/tib_pat_r/pat_ty_r/value	/jointset/tib_pat_r/pat_ty_r/speed	/jointset/ankle_r/ankle_angle_r/value	/jointset/ankle_r/ankle_angle_r/speed	/jointset/subtalar_r/subtalar_angle_r/value	/jointset/subtalar_r/subtalar_angle_r/speed	/jointset/mtp_r/mtp_angle_r/value	/jointset/mtp_r/mtp_angle_r/speed	/forceset/bifemlh_r/activation	/forceset/bifemlh_r/fiber_length	/forceset/bifemsh_r/activation	/forceset/bifemsh_r/fiber_length	/forceset/glut_max2_r/activation	/forceset/glut_max2_r/fiber_length	/forceset/vas_int_r/activation	/forceset/vas_int_r/fiber_length	/forceset/med_gas_r/activation	/forceset/med_gas_r/fiber_length	/forceset/tib_ant_r/activation	/forceset/tib_ant_r/fiber_length
      0.55045619	   -274.43016140	   -480.13863232	    253.57483769	    445.73541125	      0.00000000	      0.00000000	     -0.00000000	     -0.00000000	      0.00000000	      0.00000000	      0.00000000	      0.00000000	     -0.00000000	     -0.00000000	     -0.00000000	     -0.00000000	     59.95497501	    148.12634358	      4.17754645	     -2.08579355	     -2.83127530	    -20.53203832	   -105.21314982	   -230.11770174	      0.00089423	     -0.05810286	     -0.49118114	     -0.07814425	     17.62692526	      0.82862897	      0.02649335	     -0.10198414	     -0.02349338	     -0.01513316	     25.01230002	     49.21968580	     -0.00000000	     -0.00000000	     -0.00000000	     -0.00000000	     -0.04542914	      0.12056832	     -0.04542914	      0.14710330	     -0.04542914	      0.14402453	     -0.04542914	      0.15605266	      0.05000000	      0.10000000	      0.05000000	      0.10000000
      0.55082824	   -274.60879517	   -480.13863232	    253.74079278	    446.38545711	      0.00000000	      0.00000000	     -0.00000000	     -0.00000000	      0.00000000	      0.00000000	      0.00000000	      0.00000000	     -0.00000000	     -0.00000000	     -0.00000000	     -0.00000000	     60.01011591	    148.29320738	      4.17677055	     -2.08520339	     -2.83891139	    -20.51706782	   -105.29868994	   -229.71796730	      0.00087260	     -0.05816190	     -0.49121018	     -0.07798692	     17.62723266	      0.82384685	      0.02645543	     -0.10189237	     -0.02349901	     -0.01513723	     25.03062769	     49.30378597	     -0.00000000	     -0.00000000	     -0.00000000	     -0.00000000	     -0.04547704	      0.12061209	     -0.04547704	      0.14708349	     -0.04547704	      0.14405845	     -0.04547704	      0.15607836	      0.05000000	      0.10000000	      0.05000000	      0.10000000
      0.55140828	   -274.88729493	   -480.13863232	    254.00000852	    447.40003283	      0.00000000	      0.00000000	     -0.00000000	     -0.00000000	      0.00000000	      0.00000000	      0.00000000	      0.00000000	     -0.00000000	     -0.00000000	     -0.00000000	     -0.00000000	     60.09620723	    148.55264816	      4.17556134	     -2.08419458	     -2.85080527	    -20.49338489	   -105.43175409	   -229.09135019	      0.00083884	     -0.05825158	     -0.49125534	     -0.07774043	     17.62770835	      0.81633378	      0.02639637	     -0.10174705	     -0.02350780	     -0.01514288	     25.05926352	     49.43327939	     -0.00000000	     -0.00000000	     -0.00000000	     -0.00000000	     -0.04555172	      0.12068063	     -0.04555172	      0.14705284	     -0.04555172	      0.14411136	     -0.04555172	      0.15620117	      0.05000000	      0.10000000	      0.05000000	      0.10000000
      0.55198832	   -275.16579469	   -480.13863232	    254.25981314	    448.41594327	      0.00000000	      0.00000000	     -0.00000000	     -0.00000000	      0.00000000	      0.00000000	      0.00000000	      0.00000000	     -0.00000000	     -0.00000000	     -0.00000000	     -0.00000000	     60.18244879	    148.81121046	      4.17435274	     -2.08307742	     -2.86268529	    -20.46927977	   -105.56445357	   -228.46057223	      0.00080503	     -0.05833836	     -0.49130036	     -0.07749248	     17.62817966	      0.80875229	      0.02633739	     -0.10159897	     -0.02351658	     -0.01514768	     25.08797389	     49.56077372	     -0.00000000	     -0.00000000	     -0.00000000	     -0.00000000	     -0.04562641	      0.12074952	     -0.04562641	      0.14702247	     -0.04562641	      0.14416430	     -0.04562641	      0.15621400	      0.05000000	      0.10000000	      0.05000000	      0.10000000
      0.55236755	   -275.34787640	   -480.13863232	    254.42999080	    449.08084617	      0.00000000	      0.00000000	     -0.00000000	     -0.00000000	      0.00000000	      0.00000000	      0.00000000	      0.00000000	     -0.00000000	     -0.00000000	     -0.00000000	     -0.00000000	     60.23891405	    148.97977420	      4.17356293	     -2.08228832	     -2.87044477	    -20.45328945	   -105.65101350	   -228.04591979	      0.00078289	     -0.05839352	     -0.49132972	     -0.07732958	     17.62848541	      0.80375944	      0.02629888	     -0.10150066	     -0.02352233	     -0.01515035	     25.10678432	     49.64303660	     -0.00000000	     -0.00000000	     -0.00000000	     -0.00000000	     -0.04567523	      0.12079476	     -0.04567523	      0.14700276	     -0.04567523	      0.14419893	     -0.04567523	      0.15624720	      0.05000000	      0.10000000	      0.05000000	      0.10000000
      0.55285114	   -275.58006823	   -480.13863232	    254.64736846	    449.92952737	      0.00000000	      0.00000000	     -0.00000000	     -0.00000000	      0.00000000	      0.00000000	      0.00000000	      0.00000000	     -0.00000000	     -0.00000000	     -0.00000000	     -0.00000000	     60.31101153	    149.19416513	      4.17255620	     -2.08121458	     -2.88033086	    -20.43263166	   -105.76116662	   -227.51456414	      0.00075464	     -0.05846205	     -0.49136707	     -0.07712095	     17.62887256	      0.79735206	      0.02624983	     -0.10137358	     -0.02352965	     -0.01515324	     25.13081647	     49.74667348	     -0.00000000	     -0.00000000	     -0.00000000	     -0.00000000	     -0.04573749	      0.12085266	     -0.04573749	      0.14697779	     -0.04573749	      0.14424310	     -0.04573749	      0.15636342	      0.05000000	      0.10000000	      0.05000000	      0.10000000
      0.55333473	   -275.81226005	   -480.13863232	    254.86515675	    450.77907895	      0.00000000	      0.00000000	     -0.00000000	     -0.00000000	      0.00000000	      0.00000000	      0.00000000	      0.00000000	     -0.00000000	     -0.00000000	     -0.00000000	     -0.00000000	     60.38321254	    149.40791609	      4.17155002	     -2.08006507	     -2.89020689	    -20.41167221	   -105.87106207	   -226.98030338	      0.00072635	     -0.05852853	     -0.49140431	     -0.07691131	     17.62925660	      0.79090031	      0.02620084	     -0.10124455	     -0.02353698	     -0.01515554	     25.15489840	     49.84887894	     -0.00000000	     -0.00000000	     -0.00000000	     -0.00000000	     -0.04579976	      0.12091080	     -0.04579976	      0.14695302	     -0.04579976	      0.14428730	     -0.04579976	      0.15636828	      0.05000000	      0.10000000	      0.05000000	      0.10000000
      0.55371754	   -275.99606117	   -480.13863232	    255.03784759	    451.45218118	      0.00000000	      0.00000000	     -0.00000000	     -0.00000000	      0.00000000	      0.00000000	      0.00000000	      0.00000000	     -0.00000000	     -0.00000000	     -0.00000000	     -0.00000000	     60.44043946	    149.57665915	      4.17075393	     -2.07910131	     -2.89801744	    -20.39486513	   -105.95787076	   -226.55532416	      0.00070393	     -0.05857970	     -0.49143372	     -0.07674465	     17.62955838	      0.78576241	      0.02616210	     -0.10114104	     -0.02354278	     -0.01515694	     25.17399629	     49.92875957	     -0.00000000	     -0.00000000	     -0.00000000	     -0.00000000	     -0.04584904	      0.12095700	     -0.04584904	      0.14693354	     -0.04584904	      0.14432231	     -0.04584904	      0.15639504	      0.05000000	      0.10000000	      0.05000000	      0.10000000
      0.55425006	   -276.25174596	   -480.13863232	    255.27850570	    452.38939842	      0.00000000	      0.00000000	     -0.00000000	     -0.00000000	      0.00000000	      0.00000000	      0.00000000	      0.00000000	     -0.00000000	     -0.00000000	     -0.00000000	     -0.00000000	     60.52015480	    149.81070991	      4.16964714	     -2.07768139	     -2.90887188	    -20.37116505	   -106.07835859	   -225.96110180	      0.00067272	     -0.05864872	     -0.49147453	     -0.07651176	     17.62997490	      0.77857098	      0.02610828	     -0.10099502	     -0.02355086	     -0.01515828	     25.20061376	     50.03836134	     -0.00000000	     -0.00000000	     -0.00000000	     -0.00000000	     -0.04591760	      0.12102152	     -0.04591760	      0.14690664	     -0.04591760	      0.14437102	     -0.04591760	      0.15650924	      0.05000000	      0.10000000	      0.05000000	      0.10000000
      0.55478259	   -276.50743076	   -480.13863232	    255.51966316	    453.32760161	      0.00000000	      0.00000000	     -0.00000000	     -0.00000000	      0.00000000	      0.00000000	      0.00000000	      0.00000000	     -0.00000000	     -0.00000000	     -0.00000000	     -0.00000000	     60.59999457	    150.04394912	      4.16854112	     -2.07616912	     -2.91971360	    -20.34708945	   -106.19852903	   -225.36334186	      0.00064147	     -0.05871524	     -0.49151521	     -0.07627766	     17.63038758	      0.77132953	      0.02605453	     -0.10084662	     -0.02355893	     -0.01515890	     25.22728912	     50.14617749	     -0.00000000	     -0.00000000	     -0.00000000	     -0.00000000	     -0.04598617	      0.12108633	     -0.04598617	      0.14687998	     -0.04598617	      0.14441976	     -0.04598617	      0.15651926	      0.05000000	      0.10000000	      0.05000000	      0.10000000
      0.55510679	   -276.66309569	   -480.13863232	    255.66672840	    453.89926590	      0.00000000	      0.00000000	     -0.00000000	     -0.00000000	      0.00000000	      0.00000000	      0.00000000	      0.00000000	     -0.00000000	     -0.00000000	     -0.00000000	     -0.00000000	     60.64866303	    150.18554551	      4.16786817	     -2.07520313	     -2.92630789	    -20.33224634	   -106.27153446	   -224.99768132	      0.00062243	     -0.05875449	     -0.49153992	     -0.07613454	     17.63063693	      0.76689694	      0.02602185	     -0.10075510	     -0.02356384	     -0.01515892	     25.24355744	     50.21093502	     -0.00000000	     -0.00000000	     -0.00000000	     -0.00000000	     -0.04602791	      0.12112593	     -0.04602791	      0.14686385	     -0.04602791	      0.14444944	     -0.04602791	      0.15654552	      0.05000000	      0.10000000	      0.05000000	      0.10000000
      0.55576147	   -276.97743265	   -480.13863232	    255.96426512	    455.05469621	      0.00000000	      0.00000000	     -0.00000000	     -0.00000000	      0.00000000	      0.00000000	      0.00000000	      0.00000000	     -0.00000000	     -0.00000000	     -0.00000000	     -0.00000000	     60.74707979	    150.47052816	      4.16651024	     -2.07314780	     -2.93960907	    -20.30184142	   -106.41859313	   -224.25528794	      0.00058394	     -0.05883090	     -0.49158967	     -0.07584418	     17.63113606	      0.75789257	      0.02595595	     -0.10056759	     -0.02357377	     -0.01515817	     25.27647180	     50.33964401	     -0.00000000	     -0.00000000	     -0.00000000	     -0.00000000	     -0.04611220	      0.12120621	     -0.04611220	      0.14683155	     -0.04611220	      0.14450941	     -0.04611220	      0.15669118	      0.05000000	      0.10000000	      0.05000000	      0.10000000
      0.55641615	   -277.29176960	   -480.13863232	    256.26255872	    456.21149984	      0.00000000	      0.00000000	     -0.00000000	     -0.00000000	      0.00000000	      0.00000000	      0.00000000	      0.00000000	     -0.00000000	     -0.00000000	     -0.00000000	     -0.00000000	     60.84568271	    150.75422445	      4.16515370	     -2.07095222	     -2.95289016	    -20.27085290	   -106.56516400	   -223.50752420	      0.00054540	     -0.05890344	     -0.49163922	     -0.07555199	     17.63162927	      0.74881879	      0.02589017	     -0.10037646	     -0.02358369	     -0.01515634	     25.30946951	     50.46557168	     -0.00000000	     -0.00000000	     -0.00000000	     -0.00000000	     -0.04619649	      0.12128693	     -0.04619649	      0.14679959	     -0.04619649	      0.14456941	     -0.04619649	      0.15669950	      0.05000000	      0.10000000	      0.05000000	      0.10000000
